<?xml version="1.0" encoding="utf-8"?>
<svg version="1.1" id="Layer_1" xmlns="http://www.w3.org/2000/svg" xmlns:xlink="http://www.w3.org/1999/xlink" x="0px" y="0px"
	 viewBox="0 0 440.898 567.882" enable-background="new 0 0 440.898 567.882"
	 xml:space="preserve">
<path class="path" id="path4138"  fill="none" stroke="#FFFFFF" stroke-width="2" stroke-miterlimit="10" d="
	M392.9,477.538c-0.473,2.08-1.953,4.119-3.377,4.65l-2.535,0.947l1.766-3.535c1.652-3.303,1.5-4.09-2.348-12.109
	c-5.441-11.338-11.914-21.441-18.785-29.318c-6.804-7.801-22.616-22.602-23.075-21.598c-0.182,0.398,2.759,6.553,6.535,13.676
	c6.337,11.955,15.744,26.232,28.879,43.832c2.891,3.873,4.775,7.223,4.184,7.443c-1.777,0.664-14.533-11.904-20.623-20.322
	c-8.198-11.33-16.421-25.799-22.521-39.629l-5.306-12.029l-9.267-5.881c-12.926-8.207-40.627-20.438-62.191-27.457
	c-10.008-3.258-18.516-5.807-18.903-5.662c-0.389,0.145-0.701,12.42-0.696,27.275c0.011,26.34,0.118,27.355,4.312,40.752
	c5.153,16.455,8.6,33.09,10.19,49.193c2.163,21.885-2.261,42.166-7.824,35.867c-6.918-7.832-12.859-46.174-13.055-84.234
	c-0.062-11.719-0.524-14.363-4.277-24.42c-5.711-15.307-14.899-34.021-22.771-46.381c-3.587-5.633-6.909-10.975-7.381-11.869
	c-2.055-3.904,3.781-3.646,18.872,0.828c8.835,2.621,16.438,4.625,16.895,4.455c1.212-0.453-0.834-22.74-3.078-33.541
	c-3.511-16.887-15.515-39.91-22.865-43.855c-6.59-3.533-15.928,1.367-15.191,7.977c0.801,7.176,6.408,11.016,11.183,7.658
	c2.764-1.943,2.419-3.41-0.94-3.99c-1.978-0.34-2.131-0.572-0.739-1.123c0.964-0.381,2.761,0.08,3.991,1.025
	c3.269,2.514,1.138,5.592-4.67,6.746c-5.64,1.123-6.784,0.609-9.575-4.289c-1.926-3.381-1.9-4.725,0.192-9.891l2.421-5.98
	l5.693-0.389c10.778-0.74,15.732,4.014,27.623,26.506c4.742,8.969,10.775,39.191,10.546,52.828
	c-0.025,1.494,5.05,3.654,18.171,7.732c21.617,6.719,45.537,16.707,59.433,24.82l10.04,5.861l-3.815-12.572
	c-7.235-23.84-9.926-49.303-6.754-63.936c0.997-4.6,3.211-9.387,5.837-12.617c3.688-4.543,5.431-5.643,13.629-8.619
	c11.028-4.002,16.743-4.377,42.324-2.775c15.203,0.951,19.613,0.734,25.113-1.232c5.514-1.973,7.012-3.074,8.637-6.355
	c2.189-4.42,2.014-10.943-0.477-17.643c-2.672-7.199-1.84-13.518,2.104-15.961c4.016-2.488,4.654-7.77,1.338-11.092
	c-1.605-1.609-3.736-1.748-9.205-0.605c-4.186,0.875-7.586,0.898-8.26,0.061c-0.703-0.877-0.508-1.299,0.508-1.098
	c2.854,0.568,22.281-6.268,23.41-8.238c0.736-1.279,0.199-3.418-1.801-7.178c-4.678-8.791-4.365-10.859,2.555-16.866
	c7.412-6.437,10.469-11.181,9.271-14.39c-0.494-1.325-3.664-4.266-7.047-6.533c-13.9-9.323-25.021-22.373-29.734-34.896
	c-2.676-7.11-3.82-17.098-3.82-33.328c0.002-30.609-11.412-61.986-28.45-78.214c-2.513-2.393-3.234-3.475-1.703-2.554
	c4.043,2.432,11.356,11.329,16.159,19.658c9.502,16.477,9.928,16.927,6.217,6.569c-4.438-12.396-11.02-20.977-22.685-29.578
	c-10.995-8.107-20.677-11.849-27.246-10.527c-3.967,0.797-4.56,0.63-3.247-0.917c2.475-2.918,10.554-4.221,20.163-3.253
	c26.292,2.649,54.605,31.358,58.75,59.575c0.523,3.56,0.627,6.326,0.23,6.146c-0.395-0.18-3.168-6.242-6.162-13.47
	c-5.393-13.02-13.344-25.617-19.604-31.063c-4.068-3.538-2.811-1.06,4.328,8.528c6.023,8.089,6.375,8.885,7.963,17.982
	c1.488,8.521,1.742,21.478,0.432,21.967c-0.455,0.17-0.668-3.938-0.475-9.162c0.041-1.116-0.062-2.578-0.23-3.249
	c-0.168-0.671-0.643-4.313-1.055-8.092c-0.895-8.209-4.027-14.611-12.066-24.661c-4.705-5.882-5.443-7.263-3.568-6.674
	c2.111,0.664,2.092,0.56-0.18-0.975c-1.4-0.945-4.365-2.457-6.59-3.358c-2.225-0.901-3.12-1.574-1.988-1.494
	c1.129,0.08,0.684-0.313-0.994-0.875c-1.677-0.561-3.211-1.456-3.411-1.989c-0.38-1.019-13.22-5.857-14.388-5.421
	c-0.374,0.139,0.854,1.032,2.727,1.984c7.274,3.698,18.994,13.564,24.173,20.351c7.42,9.722,12.73,25.871,13.379,40.686
	c2.588,59.225,3.305,63.856,11.787,76.047c5.854,8.416,15.072,17.078,23.223,21.822c6.914,4.025,9.996,9.27,8.312,14.143
	c-0.512,1.48-4.158,5.921-8.105,9.867l-7.176,7.173l3.609,7.299c3.35,6.775,3.479,7.588,1.783,11.295
	c-1.002,2.197-2.637,4.297-3.633,4.67c-0.994,0.371-1.445,1.65-1,2.844c1.943,5.209,1.01,10.617-2.176,12.588
	c-4.039,2.502-4.406,5.59-1.918,16.113c2.496,10.557,2.162,14.641-1.637,19.945c-4.625,6.461-13.344,9.141-27.65,8.5
	c-27.611-1.238-33.585-1.207-40.612,0.217c-9.078,1.838-18.157,6.768-21.465,11.654c-7.23,10.684-5.133,42.055,4.882,73.035
	l5.197,16.072l9.487,7.486c18.244,14.396,31.442,30.912,39.79,49.787C392.9,471.933,393.596,474.464,392.9,477.538L392.9,477.538z
	 M250.934,499.692c0.932,4.691,1.977,8.658,2.321,8.816c2.454,1.121-3.689-45.869-6.838-52.314
	C244.617,452.509,247.964,484.753,250.934,499.692L250.934,499.692z M228.396,385.927c3.28,6.633,6.971,14.387,8.204,17.229
	c2.237,5.162,2.241,5.152,3.008-11.523c1.117-24.277,2.108-22.094-11.968-26.35c-6.634-2.006-12.289-3.562-12.564-3.461
	c-0.275,0.104,1.267,2.855,3.429,6.115C220.666,371.196,225.118,379.29,228.396,385.927L228.396,385.927z M180.739,549.407
	c-7.556,4.086-22.23,8.721-28.442,8.982c-2.291,0.096-9.834,2.209-16.765,4.697c-7.516,2.697-13.327,4.191-14.399,3.703
	c-1.328-0.607,0.291-1.627,6.167-3.891c4.854-1.867,10.786-5.289,15.183-8.758l7.215-5.693l-9.177,2.225
	c-10.245,2.479-11.875,3.02-22.555,7.488c-5.016,2.098-9.298,3.062-12.922,2.91c-5.624-0.232-13.843-3.131-14.595-5.146
	c-0.237-0.637,1.179-0.48,3.148,0.346c4.116,1.725,12.556,2.283,15.868,1.047c4.274-1.594,8.764-17.488,9.288-32.885
	c1.209-35.52-19.992-101.666-60.902-190.008c-16.43-35.477-33.67-76.934-39.385-94.707C-1.917,176.332-4.39,129.537,10.682,92.402
	c12.951-31.912,50.718-47.34,84.552-34.541c10.018,3.789,10.131,5.339,0.167,2.274c-26.361-8.11-54.058-1.248-70.557,17.481
	C10.692,93.681,3.618,126.941,6.894,161.995c3.948,42.221,18.166,85.639,53.228,162.537
	c57.506,126.121,74.577,188.531,60.685,221.855c-3.483,8.357-2.504,9.182,3.846,3.23c11.57-10.842,13.156-33.182,5.017-70.68
	c-8.056-37.111-12.312-51.744-27.293-93.834c-15.357-43.148-25.61-67.68-42.905-102.65c-11.621-23.498-33.918-82.437-38.701-102.3
	c-10.177-42.264-10.786-73.94-1.753-91.332c5.555-10.695,14.051-18.268,26.605-23.715c17.779-7.713,34.744-7.508,50.269,0.607
	l6.059,3.167l2.996-4.424c6.021-8.891,17.53-11.498,22.507-5.097l2.336,3.005l12.585-9.181
	c17.723-12.929,35.273-23.863,50.263-31.314c16.436-8.17,43.8-17.197,58.913-19.433c21.692-3.21,44.298-0.984,61.416,6.049
	c10.516,4.321,15.849,8.8,17.319,14.546l1.005,3.921l-3.371-4.488c-9.031-12.031-39.917-19.286-70.127-16.474
	c-11.755,1.094-14.151,1.771-39.476,11.149c-28.63,10.603-33.165,12.888-56.714,28.576c-21.818,14.536-29.794,21.078-32.035,26.276
	l-2.003,4.647l14.95,8.247c31.718,17.499,65.692,27.971,92.356,28.468c10.876,0.203,28.498-3.249,41.962-8.219
	c12.613-4.656,13.381-4.829,10.149-2.285c-1.418,1.116-7.113,3.782-12.657,5.923c-34.699,13.403-79.32,6.26-132.375-21.19
	c-10.309-5.333-10.94-5.498-7.659-1.996c23.583,25.169,87.116,47.162,118.525,41.028c4.277-0.835,7.944-1.069,8.149-0.521
	c0.476,1.275-0.034,1.446-8.938,3.014c-9.585,1.687-21.886,0.79-37.51-2.735c-36.566-8.251-67.768-23.53-82.835-40.564l-5.592-6.322
	l3.497,7.367c16.403,34.561,47.58,63.363,88.214,81.495c19.772,8.823,22.873,11.023,11.9,8.446
	c-14.321-3.363-40.579-17.933-57.381-31.838c-18.349-15.186-34.076-34.689-42.104-52.214l-4.65-10.153l-1.212,3.613
	c-0.666,1.987-2.014,8.139-2.994,13.672s-3.215,15.106-4.965,21.275c-4.058,14.307-5.314,30.092-3.625,45.577
	c1.543,14.149,6.657,32.12,11.615,40.808l3.451,6.05l-3.342-9.427c-7.681-21.666-10.651-44.272-8.427-64.158
	c1.981-17.706,3.442-20.125,2.136-3.538c-0.624,7.938-0.914,17.652-0.645,21.587c1.453,21.203,11.454,52.244,22.505,69.847
	c8.789,14,30.264,36.264,40.556,42.045l4.282,2.404l-3.209-3.072c-4.962-4.752-4.354-5.068,1.821-0.945
	c9.19,6.137,18.329,8.102,30.325,6.523l8.163-1.076l-7.119,1.91c-8.814,2.361-18.012,2.025-25.079-0.916l-5.386-2.242l4.473,3
	c10.831,7.268,5.945,6.463-8.681-1.432c-31.213-16.844-55.271-43.947-67.196-75.705c-7.725-20.572-10.262-39.667-8.019-60.336
	c1.775-16.34,7.089-33.998,10.631-35.319c0.766-0.286,1.25-1.817,1.077-3.403c-0.174-1.586,1.197-9.359,3.046-17.273
	c4.438-18.993,3.854-23.658-2.659-21.228c-10.943,4.083-16.169,21.789-11.138,37.73c2.539,8.041,2.391,9.323-0.94,8.162
	c-1.432-0.5-3.066-2.769-4.218-5.856c-2.082-5.58-4.273-6.148-8.864-2.301c-5.969,5.002-8.285,16.184-7.299,35.246
	c1.259,24.348,2.279,28.204,19.876,75.135c17.876,47.672,21.455,55.604,60.634,134.352c38.398,77.18,44.94,91.562,49.745,109.357
	c5.011,18.557,6.26,28.889,4.961,41.002C217.442,516.081,202.211,537.79,180.739,549.407L180.739,549.407z M149.764,555.782
	c6.797-0.994,20.213-6.326,22.656-9.004c1.302-1.426,4.641-4.547,7.419-6.934c17.563-15.08,25.728-34.488,25.167-59.826
	c-0.133-6.023,0.095-10.072,0.506-8.994c1.382,3.615,1.124,23.059-0.417,31.295c-2.081,11.141-8.967,24.305-17.284,33.039
	c-8.05,8.455-6.883,8.723,2.472,0.568c9.001-7.852,15.315-16.648,19.629-27.359c5.594-13.889,6.038-24.266,1.888-44.129
	c-4.376-20.941-10.709-35.559-48.521-111.979c-37.368-75.518-41.521-84.414-56.505-121.006l-11.611-28.355l14.401,37.32
	c13.531,35.062,18.41,46.205,45.201,103.211c12.641,26.898,29.976,75.023,35.801,99.393c8.188,34.252,5.956,57.672-7.304,76.619
	c-4.192,5.99-15.687,17.49-31.783,31.799C146.082,556.237,146.047,556.327,149.764,555.782L149.764,555.782z M205.036,466.405
	c0.454,1.387,0.28,1.768-0.443,0.973c-0.654-0.719-0.989-1.744-0.745-2.279C204.092,464.565,204.627,465.153,205.036,466.405
	L205.036,466.405z M132.131,549.644c0.099,0.266,3.181-0.725,6.849-2.203c26.731-10.773,36.909-25.105,39.924-56.225
	c2.456-25.338-0.487-44.121-13.12-83.748c-9.806-30.76-19.59-54.127-60.604-144.734c-31.227-68.99-41.374-108.08-35.797-137.897
	c1.432-7.659,6.296-19.676,7.703-19.034c0.317,0.145-0.685,2.609-2.226,5.477C68.722,122.701,68.025,144.7,73,170.008
	c2.784,14.159,21.777,64.09,35.332,92.883c66.768,141.828,83.535,199.105,71.959,245.812c-0.774,3.125-1.135,5.809-0.799,5.961
	c0.334,0.154,2.502-3.822,4.816-8.836c7.97-17.273,7.657-37.602-1.068-69.473c-6.844-24.998-19.787-61.469-28.418-80.074
	c-39.381-84.891-58.905-131.924-67.833-163.408c-16.077-56.688-13.64-95.145,6.344-100.138c6.344-1.585,7.173-3.418,2.069-4.576
	c-4.645-1.053-12.032,2.463-17.582,8.37c-3.315,3.529-3.968,3.867-4.247,2.196c-0.182-1.085,1.567-4.127,3.887-6.761
	c4.955-5.625,13.725-8.736,18.863-6.692c1.714,0.681,2.904,0.667,2.642-0.034c-0.261-0.7-2.644-1.855-5.293-2.567
	c-7.255-1.95-19.31,2.806-26.562,10.479c-10.401,11.004-16.208,30.012-15.172,49.656c0.755,14.33,2.878,24.133,10.298,47.55
	c3.397,10.72,5.919,20.015,5.605,20.653c-1.22,2.479-15.825-43.627-17.496-55.231c-4.065-28.244,0.915-49.74,14.83-64.021
	c8.298-8.516,19.408-13.184,26.521-11.141c6.507,1.868,6.88,1.662,8.444-4.643l1.419-5.725l-6.987-3.29
	c-4.124-1.941-11.78-3.791-18.683-4.512c-11.51-1.204-11.889-1.151-24.081,3.397c-10.244,3.822-13.489,5.587-18.76,10.208
	c-17.398,15.25-21.051,42.387-11.8,87.67c3.218,15.752,5.225,21.966,19.307,59.748c13.342,35.799,17.608,45.992,28.259,67.506
	c15.505,31.318,42.974,100.707,51.544,130.205c13.731,47.262,21.485,89.16,19.45,105.098c-1.385,10.842-1.331,10.861,3.316,1.135
	c4.785-10.014,10.424-31.75,10.143-39.094c-0.102-2.654,0.155-4.668,0.571-4.479c1.193,0.545,0.309,14.068-1.484,22.701
	c-2.164,10.416-8.415,24.824-15.035,34.65C134.367,545.577,132.033,549.38,132.131,549.644L132.131,549.644z M147.863,538.071
	c-3.577,5.066-3.648,3.811-0.114-1.996c6.36-10.449,13.147-27.049,15.703-38.408c3.054-13.576,3.64-15.127,2.785-7.365
	C164.69,504.312,156.303,526.12,147.863,538.071L147.863,538.071z M133.614,446.913c-0.508,0.189-1.205-1.203-1.55-3.092
	c-1.405-7.689-10.822-41.355-18.039-64.484c-9.273-29.729-18.77-51.68-41.409-95.723c-14.603-28.408-16.496-32.768-30.681-70.664
	c-10.45-27.916-15.662-43.275-16.88-49.738c-2.855-15.148-4.948-32.842-3.928-33.222c0.52-0.194,0.935,1.271,0.922,3.257
	c-0.047,7.474,5.569,33.103,11.296,51.554c8.059,25.961,21.475,56.753,42.254,96.972c27.328,52.896,40.229,87.217,53.55,142.455
	C132.112,436.517,134.121,446.724,133.614,446.913z M117.969,311.614c-3.818-8.357-13.788-29.51-22.156-47.002
	c-13.651-28.539-16.007-34.197-13.803-33.148c0.36,0.172,7.837,15.344,16.616,33.715c8.779,18.373,18.523,38.705,21.655,45.186
	c3.131,6.48,6.461,13.943,7.399,16.584C131.202,336.853,125.082,327.19,117.969,311.614z M99.84,398.741
	c0.792,2.107,0.72,3.174-0.184,2.736c-0.814-0.393-12.971-26.447-27.014-57.896c-14.042-31.449-27.5-61.307-29.905-66.348
	c-4.998-10.475-6.898-18.863-2.343-10.342C48.054,281.224,93.85,382.794,99.84,398.741L99.84,398.741z M292.057,247.89
	c-2.593,1.422-7.771,1.52-8.278,0.158c-0.225-0.6,1.7-1.879,4.276-2.84c3.494-1.303,4.509-2.219,3.993-3.602
	c-0.381-1.021,0.056-1.861,0.97-1.871c0.914-0.008,2.285-1.162,3.046-2.564c1.88-3.467,2.562-1.059,1.043,3.689
	C296.098,244.017,293.721,246.978,292.057,247.89z M416.822,214.411c-0.221,0.14-0.041-0.782,0.4-2.048s2.471-2.86,4.512-3.545
	c3.695-1.238,3.693-1.232-0.4,2.049C419.074,212.677,417.045,214.272,416.822,214.411z M224.671,267.888
	c4.814,0.463,6.555,1.057,4.978,1.697c-3.896,1.582-18.797-2.381-29.238-7.779c-33.071-17.096-56.027-45.66-66.209-82.388
	c-3.825-13.796-5.689-34.809-3.26-36.768c1.018-0.822,1.513-0.301,1.801,1.895c2.769,21.095,3.067,22.288,9.31,37.059
	c18.171,43,52.922,73.51,83.355,73.182c3.022-0.031,9.093-0.875,13.49-1.873l7.994-1.816l-9.562,2.977
	c-7.827,2.436-11.324,2.797-19.267,1.998c-23.772-2.395-48.489-20.908-68.574-51.365l-4.517-6.848l3.496,7.521
	C162.113,234.735,199.598,265.483,224.671,267.888L224.671,267.888z M274.753,237.497c-2.328-2.801-7.276-7.559-10.996-10.574
	c-8.819-7.148-12.025-11.133-14.681-18.25c-5.476-14.679-0.685-30.02,8.122-26c3.255,1.487,3.444,1.314,3.608-3.296
	c0.18-5.047,5.926-16.683,12.794-25.909c2.906-3.904,12.046-13.704,20.311-21.778s17.866-17.817,21.336-21.651
	c6.086-6.726,6.317-7.29,6.535-15.947c0.125-4.936-0.634-12.256-1.686-16.267c-1.695-6.468-1.665-6.856,0.272-3.437
	c1.485,2.621,2.29,7.227,2.518,14.393c0.183,5.796,0.604,10.662,0.934,10.813c1.34,0.611,8.446-17.337,8.899-22.476
	c0.268-3.035-0.644-9.6-2.022-14.588l-2.51-9.07l3.442,8.722c2.737,6.938,3.33,10.134,2.898,15.619
	c-0.557,7.055-5.521,19.625-9.914,25.1c-1.35,1.683-2.978,5.68-3.617,8.882c-1.805,9.028-10.262,26.45-19.451,40.065
	c-13.42,19.884-16.783,31.093-13.557,45.178c1.757,7.673,8.533,16.932,14.808,20.233c3.778,1.988,5.163,2.083,7.455,0.504
	c3.334-2.294,4.511-9.161,2.31-13.473c-1.175-2.301-2.62-2.977-6.156-2.875l-4.621,0.131l3.756-1.477
	c5.523-2.171,9.764,1.193,10.221,8.107c0.185,2.794-0.672,6.765-1.904,8.825l-2.24,3.745l3.581-1.938
	c2.877-1.554,3.442-1.537,2.874,0.094c-0.942,2.701-6.288,4.59-9.916,3.506c-1.603-0.48-4.149-0.43-5.657,0.109
	c-4.358,1.559-20.14-6.426-25.572-12.939c-5.924-7.103-10.338-20.926-9.747-30.527c0.385-6.246,0.308-6.519-1.082-3.836
	c-0.822,1.588-1.666,6.199-1.875,10.248c-0.367,7.135-1.482,9.765-2.728,6.428c-0.334-0.895-2.08-2.494-3.881-3.555l-3.274-1.929
	l-1.992,4.017c-2.567,5.178-1.783,16.443,1.544,22.197c1.378,2.383,7.013,8.513,12.52,13.625s10.589,10.879,11.294,12.816
	C278.813,242.112,278.415,241.899,274.753,237.497z M301.656,220.868c-0.139-0.371-2.602-2.238-5.475-4.149
	c-7.966-5.298-13.169-12.446-15.951-21.92c-3.413-11.624-1.658-22.284,6.79-41.235l6.791-15.234l-4.439,12.29
	c-2.441,6.759-5.297,16.185-6.346,20.947c-2.85,12.944-1.265,26.645,3.494,30.188c1.318,0.981,1.326,0.073,0.03-3.442
	c-4.664-12.647-0.833-26.126,13.436-47.268c10.313-15.281,15.848-25.861,18.346-35.074l1.869-6.898l-5.539,6.002
	c-6.207,6.725-19.824,20.396-20.705,20.786c-1.566,0.695-13.515,14.432-17.74,20.396c-6.293,8.884-7.002,10.963-7.29,21.378
	c-0.474,17.178,5.334,29.412,17.821,37.543C292.164,218.7,302.291,222.569,301.656,220.868z M385.33,181.716
	c1.582,1.162,2.346,2.312,1.697,2.555c-0.65,0.242-1.754-0.209-2.455-1.002s-7.242-2.87-14.539-4.615
	c-7.297-1.746-13.479-3.745-13.739-4.441s0.4-1.258,1.468-1.248c5.587,0.052,21.216-3.164,24.121-4.964
	c2.838-1.757,3.156-2.629,2.115-5.781c-0.674-2.042-1.371-5.459-1.549-7.594c-0.238-2.881,0.266-1.974,1.957,3.521
	c2.584,8.394,4.727,10.011,11.762,8.878c2.908-0.469,3.764-0.198,2.926,0.925c-0.967,1.298-0.777,1.699,1.047,2.202
	c1.711,0.471,1.271,0.795-1.883,1.389c-2.549,0.481-3.678,1.113-2.969,1.664c1.861,1.445-0.078,1.541-5.051,0.248
	c-3.213-0.836-3.93-0.775-2.305,0.193c1.396,0.832,1.848,1.593,1.109,1.868c-0.686,0.256-1.803,0.032-2.482-0.495
	c-0.812-0.631-1.73-0.01-2.674,1.812C382.564,179.384,382.676,179.767,385.33,181.716L385.33,181.716z M228.627,226.558
	c-13.563-1.473-21.871-4.006-35.643-10.873c-20.303-10.121-39.173-30.633-48.237-52.431c-2.376-5.717-3.396-8.639-2.265-6.493
	c23.198,43.992,48.096,63.729,86.567,68.624C242.931,227.151,242.599,228.073,228.627,226.558z M387.256,136.51
	c-0.701,0.579-4.465,0.558-8.365-0.048c-7.963-1.236-18.568-0.292-30.336,2.699c-5.732,1.457-7.368,1.515-5.924,0.211
	c3.322-2.998,15.629-7.197,23.441-7.999C380.039,129.94,391.771,132.785,387.256,136.51L387.256,136.51z M379.732,110.549
	c-0.43-0.196-0.623-4.195-0.428-8.888c1.223-29.61-11.875-55.789-32.889-65.726c-7.325-3.463-7.46-3.598-2.685-2.686
	c2.765,0.527,7.478,2.464,10.47,4.303c2.994,1.839,5.61,2.979,5.814,2.531s1.009-0.318,1.788,0.287
	c0.905,0.703,0.817,0.98-0.247,0.769c-2.155-0.429-2.215-0.53,3.524,5.896c7.457,8.348,15.326,27.696,16.828,41.376
	c0.627,5.705,0.57,13.1-0.127,16.434C381.084,108.178,380.162,110.745,379.732,110.549z M372.731,107.308
	c-2.412,6.342-3.907,8.054-2.476,2.837c1.875-6.841,2.927-19.655,2.195-26.772c-1.562-15.226-10.668-31.933-21.694-39.802
	c-4.018-2.868-4.245-3.204-1.424-2.098c1.849,0.724,6.216,4.011,9.706,7.303C373.403,62.327,379.662,89.084,372.731,107.308
	L372.731,107.308z M348.56,119.906c-0.247,0.092,0.705-3.884,2.115-8.836c5.362-18.823,4.33-36.527-2.878-49.368
	c-2.208-3.934-3.933-7.565-3.833-8.069c0.101-0.504-0.485-1.436-1.303-2.069c-0.836-0.649-0.087,3.474,1.713,9.431
	c5.565,18.417,4.001,41.22-3.725,54.28c-4.493,7.597-5.123,5.682-1.205-3.668c9.201-21.958,6.19-52.907-6.668-68.53
	c-3.237-3.934-3.853-5.102-2.055-3.903c1.412,0.941,3.58,2.285,4.819,2.987c3.818,2.164,10.295,10.93,14.25,19.287
	c3.536,7.473,8.031,25.458,6.854,27.425c-0.282,0.472-0.939,4.93-1.459,9.907c-0.521,4.976-2.122,11.728-3.562,15.003
	C350.187,117.058,348.807,119.814,348.56,119.906z M266.609,91.163c-3.123,2.096-21.876,7.358-30.106,8.448
	c-24.882,3.295-59.308-1.915-79.99-12.103c-5.063-2.495-3.454-2.212,7.139,1.254c34.634,11.333,59.754,13.412,85.106,7.046
	c18.389-4.618,31.302-12.479,43.006-26.184c4.617-5.406,6.771-6.699,5.607-3.364c-1.434,4.108-12.555,14.247-20.927,19.078
	C271.915,87.951,267.49,90.572,266.609,91.163L266.609,91.163z M325.414,27.063c0.224,0.6-3.391-0.64-8.032-2.754
	c-6.136-2.796-11.272-3.951-18.824-4.229c-13.143-0.485-35.612,1.855-53.834,5.608c-18.179,3.744-54.188,17.18-78.353,29.236
	c-18.686,9.323-22.136,10.853-21.541,9.55c1.073-2.351,37.969-19.161,61.938-28.219c23.304-8.808,28.902-10.512,41.933-12.766
	c36.229-6.265,59.09-6.515,70.091-0.766C322.209,24.51,325.189,26.463,325.414,27.063L325.414,27.063z"/>
<rect class="path" x="-472.49" y="-93.46" fill="#5D5E5E" width="278" height="814"/>
</svg>
