<?xml version="1.0" encoding="utf-8"?>
<svg version="1.1" id="Layer_1" xmlns="http://www.w3.org/2000/svg" xmlns:xlink="http://www.w3.org/1999/xlink" x="0px" y="0px" viewBox="0 0 251.839 268.716" enable-background="new 0 0 251.839 268.716"
	 xml:space="preserve">
<rect x="-1138.843" y="-341.919" fill="#5D5E5E" stroke="#FFFFFF" stroke-miterlimit="10" width="278" height="814"/>
	<path class="path"  fill-rule="evenodd"  fill="none" stroke="#FFFFFF" stroke-width="2" stroke-miterlimit="10" d="
		M250.839,35.853c-1.912,7.09-7.217,11.639-12.314,16.311c-3.02,2.768-6.233,5.323-9.251,8.093c-0.662,0.608-1.202,1.71-1.225,2.599
		c-0.29,11.657-3.614,22.431-9.542,32.383c-2.316,3.892-5.127,7.49-7.748,11.197c-1.111,1.572-2.464,2.884-4.596,2.598
		c-0.448-0.061-1.218-0.946-1.166-1.029c0.912-1.449,1.68-3.139,2.961-4.186c10.528-8.604,16.512-19.552,17.376-33.167
		c0.128-2.023-0.274-4.08-0.474-6.665c-15.854,12.371-28.41,26.512-34.967,44.975c3.491,2.651,7.107,4.996,10.227,7.879
		c3.228,2.983,4.193,7.226,4.716,12.051c2.005-3.42,3.653-6.395,5.459-9.271c1.806-2.875,3.768-5.651,6.029-8.245
		c-0.36,0.595-0.71,1.194-1.083,1.78c-2.16,3.391-4.307,6.789-6.494,10.16c-2.579,3.976-3.806,8.289-4.82,12.969
		c-1.238,5.712-3.993,11.166-6.568,16.502c-4.326,8.97-9.054,17.745-13.551,26.633c-0.752,1.486-1.189,3.132-1.807,4.793
		c7.67,0.014,24.32-5.402,31.334-11.51c-2.027,2.364-3.984,4.795-6.102,7.076c-3.361,3.627-7.979,4.389-12.536,5.211
		c-3.435,0.619-6.868,1.26-10.321,1.758c-2.434,0.35-4.184,1.232-4.52,3.957c-0.77,6.256-1.682,12.494-2.354,18.76
		c-0.159,1.477,0.396,3.029,0.661,4.801c-5.066-8.66-5.725-17.262-0.463-26.497c-1.749,0.169-2.727,0.206-3.686,0.363
		c-12.947,2.132-22.842,12.605-24.639,23.169c-1.316,7.742,2.233,14.654,9.953,18.268c0.26,0.121,0.531,0.221,0.73,0.438
		c-6.05-1.788-11.486-4.598-13.982-10.803c-2.49-6.193,0.021-11.889,2.992-17.783c-0.635,0.295-0.922,0.345-1.084,0.515
		c-6.561,6.89-14.957,10.353-23.898,12.778c-2.823,0.766-3.045,1.049-2.521,3.984c0.9,5.035,2.732,9.725,5.233,14.166
		c5.949,10.569,14.448,18.556,25.732,22.811c11.307,4.264,22.322,3.299,31.482-5.618c5.271-5.133,8.052-11.66,8.352-18.954
		c0.248-6.064-0.19-12.16-0.425-18.236c-0.045-1.158-0.646-2.286-0.817-3.453c-0.09-0.608,0.193-1.271,0.309-1.91
		c0.453,0.473,1.207,0.887,1.31,1.426c0.776,4.068,1.829,8.143,2.023,12.252c0.36,7.604,0.085,15.268-3.57,22.218
		c-4.061,7.72-9.633,13.778-18.792,15.383c-7.055,1.236-13.926,0.632-20.639-1.866c-1.041-0.389-2.115-0.688-3.178-1.021
		c-0.05-0.017-0.127,0.054-0.579,0.263c1.2,0.819,2.237,1.527,3.251,2.22c-9.633-2.608-30.219-21.935-33.336-42.194
		c-1.949,0.193-3.932,0.304-5.887,0.599c-17.51,2.643-34.343-0.463-50.902-5.937c-3.428-1.133-3.584-1.163-5.088,2.081
		c-0.732,1.58-1.039,3.356-1.736,5.709c-0.115-3.247-0.382-5.958-0.229-8.646c0.066-1.183-0.18-1.682-1.182-1.92
		c-6.566-1.562-13.066-3.654-19.725-4.514c-8.194-1.059-13.687,2.521-14.857,11.275c-0.546,4.081,0.406,7.982,1.786,11.793
		c2.729,7.535,7.899,12.836,15.007,16.361c0.73,0.362,1.453,0.744,2.168,1.139c0.111,0.062,0.158,0.238,0.233,0.362
		c-1.684,0.403-5.147-1.417-8.729-4.69c-2.568-2.348-5.068-4.771-7.842-7.39c0.559,1.997,1.241,3.816,1.552,5.696
		c0.367,2.226,0.825,4.564,0.5,6.743c-0.465,3.109-2.431,3.866-5.257,2.464c-1.122-0.556-2.141-1.32-3.076-2.248
		c0.359,0.164,0.717,0.33,1.078,0.49c4.25,1.89,7.028,0.187,6.234-4.408c-0.811-4.698-2.203-9.402-4.08-13.787
		c-2.984-6.971-3.727-13.965-1.197-21.033c1.727-4.824,5.641-7.27,10.842-7.613c5.572-0.369,10.725,1.387,15.9,2.992
		c3.832,1.189,7.576,2.662,11.418,3.818c1.005,0.303,2.414,0.244,3.316-0.243c10.242-5.536,21.176-8.202,32.783-7.942
		c4.6,0.104,9.198,0.559,13.773,1.068c1.216,0.135,2.397,0.979,3.481,1.675c0.364,0.233,0.642,1.13,0.476,1.515
		c-0.178,0.409-0.968,0.857-1.418,0.791c-1.443-0.213-2.897-0.531-4.27-1.026c-12.514-4.513-24.786-4.138-36.735,1.862
		c-2.003,1.006-3.755,2.514-5.622,3.789c0.053,0.229,0.105,0.456,0.159,0.684c2.981,1.088,5.931,2.268,8.948,3.244
		c10.525,3.403,21.29,5.608,32.387,5.523c4.664-0.037,9.323-0.77,13.986-1.165c1.318-0.112,1.69-0.802,1.705-2.075
		c0.03-2.744,0.112-5.5,0.389-8.229c0.383-3.766,2.135-6.938,4.742-9.637c5.13-5.308,11.719-7.564,18.785-8.109
		c9.93-0.766,19.902-0.977,29.856-1.457c1.778-0.085,3.571-0.216,5.315-0.549c0.686-0.131,1.631-0.756,1.82-1.357
		c2.24-7.109,6.689-13.441,7.154-21.191c0.541-9.025-3.025-21.092-13.316-26.453c-6.041-3.148-11.854-1.348-17.164,2.385
		c-0.997,0.701-1.904,1.529-2.931,2.193c8.534-9.871,21.458-15.545,32.134,0.872c-0.27-3.093-0.747-6.315-0.777-9.543
		c-0.029-3.263,0.171-6.562,0.662-9.785c0.5-3.292,1.478-6.513,2.291-9.951c-3.743-2.186-8.016-3.198-12.365-3.634
		c-12.65-1.266-24.484,1.324-35.072,8.479c-9.77,6.601-15.09,15.808-14.178,27.786c0.572,7.51,4.412,13.64,10.131,18.523
		c5.676,4.847,12.359,7.971,19.096,10.977c1.002,0.447,2.187,0.481,3.197,0.914c0.544,0.232,0.899,0.905,1.34,1.379
		c-0.592,0.277-1.213,0.832-1.77,0.774c-1.365-0.144-2.702-0.569-4.182-0.45c1.117,0.354,2.235,0.708,3.354,1.062
		c-0.012,0.102-0.021,0.203-0.033,0.307c-9.684-0.675-19.387-1.162-29.046-2.09c-6.284-0.603-10.782-4.24-13.735-9.773
		c6.063-3.77,12.021-3.002,17.982,0.238c4.644,2.523,9.336,4.959,14.017,7.414c0.77,0.403,1.591,0.709,2.622,0.662
		c-0.76-0.435-1.561-0.812-2.273-1.314c-4.853-3.42-10.303-6.262-14.402-10.428c-9.488-9.644-12.593-22.326-4.867-34.798
		c2.165-3.494,5.148-6.489,7.83-9.649c0.806-0.951,1.859-1.691,2.801-2.529c-0.096-0.16-0.191-0.32-0.287-0.481
		c-1.416,0.784-2.947,1.415-4.232,2.374c-14.984,11.196-26.535,25.115-33.66,42.549c-1.437,3.516-1.123,6.953-0.198,10.486
		c0.825,3.152,1.401,6.372,2.292,9.504c0.297,1.043,1.228,1.906,1.959,2.984c-3.945-2.688-8.312-5.053-8.035-10.535
		c0.16-3.207,0.822-6.541,2.008-9.52c8.289-20.816,21.719-37.549,40.707-49.547c7.379-4.662,15.762-6.953,24.402-7.901
		c7.348-0.806,14.729-0.875,21.933,1.312c1.278,0.388,2.536,0.84,4.032,1.338c0.534-1.21,1.114-2.39,1.584-3.611
		c6.527-16.988,17.734-30.521,31.244-42.358c3.067-2.688,3.176-3.433,0.422-6.548c-1.102-1.244-2.529-2.199-3.621-3.735
		c3.086,1.45,6.17,2.899,9.803,4.607c2.396-2.307,5.461-4.995,8.207-7.978c2.511-2.727,4.943-5.6,6.941-8.709
		c4.178-6.497,2.722-13.072-3.926-17.074c-10.488-6.315-21.044-5.898-31.416,0.512c-1.02,0.629-2.054,1.234-3.081,1.851
		c-0.2-0.249-0.401-0.497-0.603-0.745c0.605-0.568,1.138-1.254,1.828-1.688c5.186-3.265,10.95-4.912,17.012-6.227
		c-1.867-0.494-3.781-0.859-5.589-1.52c-1.86-0.679-3.838-1.359-5.368-2.549c-2.848-2.214-2.615-5.287,0.707-6.69
		c4.623-1.953,9.442-3.542,14.305-4.793c2.729-0.702,5.717-0.576,8.58-0.505c1.638,0.04,3.346,0.779,3.707,2.678
		c0.373,1.962-1.213,2.862-2.599,3.75c-0.665,0.426-1.372,0.788-2.214,1.265c0.092-0.349,0.103-0.474,0.156-0.577
		c0.678-1.319,1.941-2.68,1.84-3.933c-0.066-0.827-2.037-2.006-3.25-2.132c-2.549-0.266-5.271-0.383-7.719,0.242
		c-3.626,0.925-7.292,2.157-10.539,3.976c-3.682,2.062-3.552,5.207,0.329,6.716c4.446,1.729,9.187,3.043,13.913,3.635
		c7.744,0.971,14.369,3.771,19.355,9.799c1.312,1.586,1.807,3.848,2.678,5.799C250.839,33.468,250.839,34.659,250.839,35.853z
		 M165.606,189.744c-0.029-0.189-0.059-0.378-0.088-0.567c-0.558-0.049-1.132-0.211-1.67-0.129
		c-9.004,1.369-18.055,2.518-26.985,4.271c-4.45,0.874-8.515,3.155-11.505,6.846c-3.305,4.077-4.169,8.794-3.852,14.497
		c4.044-1.475,7.709-2.645,11.24-4.135c8.123-3.428,15.023-8.741,21.771-14.311c2.21-1.824,4.816-3.184,7.297-4.662
		C163.013,190.84,164.339,190.341,165.606,189.744z M191.579,154.813c3.178-7.359,6.214-14.221,7.354-21.706
		c1.316-8.663-2.659-16.012-10.936-19.917C185.085,127.327,182.688,141.194,191.579,154.813z M187.37,148.454
		c0,4.746,0,9.754,0,14.764c1.428-2.226,2.491-4.493,3.447-6.805c0.199-0.482,0.19-1.225-0.043-1.684
		C189.64,152.499,188.396,150.321,187.37,148.454z"/>
	<path class="path" fill-rule="evenodd" clip-rule="evenodd" fill="none" stroke="#FFFFFF" stroke-width="2" stroke-miterlimit="10" d="
		M236.063,127.604c-2.238,1.527-2.617,3.764-2.934,6.197c-0.616,4.715-3.335,8.22-7.256,10.748
		c-4.999,3.223-10.303,6.02-15.057,9.562c-4.071,3.032-7.699,6.717-11.225,10.398c-1.364,1.425-1.866,3.659-2.859,5.472
		c-0.197,0.361-0.84,0.479-1.276,0.709c-0.012-0.449-0.042-0.896-0.022-1.344c0.005-0.127,0.15-0.25,0.234-0.373
		c6.666-9.847,13.344-19.686,19.993-29.544c3.945-5.85,9.18-9.405,16.439-9.602c0.693-0.019,1.438-0.607,2.032-1.089
		c0.541-0.438,0.91-1.09,1.355-1.648C235.681,127.263,235.872,127.434,236.063,127.604z"/>
	<path class="path" fill-rule="evenodd" clip-rule="evenodd" fill="none" stroke="#FFFFFF" stroke-width="2" stroke-miterlimit="10" d="
		M218.909,107.474c1.984-3.737,4.291-8.189,6.7-12.583c2.919-5.323,10.69-7.119,15.073-1.261c0.443,0.595,0.93,1.174,1.479,1.668
		c0.54,0.485,1.185,0.853,1.781,1.271c-2.448,3.626-7.194,4.973-10.937,3.122c-2.361-1.168-4.459-0.171-6.223,1.152
		C223.849,103.047,221.147,105.565,218.909,107.474z"/>
	<path class="path" fill-rule="evenodd" clip-rule="evenodd" fill="none" stroke="#FFFFFF" stroke-width="2" stroke-miterlimit="10" d="
		M100.674,190.806c-4.968,0-9.555,0.044-14.141-0.014c-4.325-0.053-7.875-2.934-8.69-7.184c-0.238-1.242,0.016-2.637,0.297-3.906
		c0.365-1.646,0.984-3.235,1.493-4.846c3.239-0.009,7.112,3.21,7.303,6.545c0.177,3.106,1.97,4.733,4.409,5.825
		C94.227,188.516,97.242,189.506,100.674,190.806z"/>
	<path class="path" fill-rule="evenodd" clip-rule="evenodd" fill="none" stroke="#FFFFFF" stroke-width="2" stroke-miterlimit="10" d="
		M224.612,254.413c0.555,5.596-1.965,8.639-6.045,10.602c-4.432,2.134-9.24,2.516-14.076,2.701c5.215-0.092,9.428-2.2,12.904-6.062
		C219.564,259.245,221.97,257.049,224.612,254.413z"/>
	<path class="path" fill-rule="evenodd" clip-rule="evenodd" fill="none" stroke="#FFFFFF" stroke-width="2" stroke-miterlimit="10" d="
		M6.598,226.497c-4.646,0.468-5.013,1.77-3.134,8.318c-0.799-1.945-1.928-3.824-2.322-5.848c-0.646-3.318,0.95-4.438,4.082-3.193
		C5.563,225.909,5.874,226.112,6.598,226.497z"/>
	<path class="path" fill-rule="evenodd" clip-rule="evenodd" fill="none" stroke="#FFFFFF" stroke-width="2" stroke-miterlimit="10" d="
		M159.436,178.766c2.538-0.112,5.077-0.226,7.616-0.339c-0.002,0.238-0.004,0.478-0.006,0.716c-1.262,0-2.529,0.067-3.785-0.019
		c-1.28-0.088-2.551-0.326-3.825-0.498C159.436,178.673,159.436,178.719,159.436,178.766z"/>
	<path class="path" fill-rule="evenodd" clip-rule="evenodd" fill="none" stroke="#FFFFFF" stroke-width="2" stroke-miterlimit="10" d="
		M165.606,189.744c-1.268,0.597-2.594,1.096-3.791,1.81c-2.48,1.479-5.087,2.838-7.297,4.662
		c-6.748,5.569-13.648,10.883-21.771,14.311c-3.531,1.49-7.196,2.66-11.24,4.135c-0.317-5.703,0.547-10.42,3.852-14.497
		c2.99-3.69,7.055-5.972,11.505-6.846c8.931-1.753,17.981-2.901,26.985-4.271c0.538-0.082,1.112,0.08,1.67,0.129
		C165.548,189.366,165.577,189.555,165.606,189.744z"/>
	<path class="path" fill-rule="evenodd" clip-rule="evenodd" fill="none" stroke="#FFFFFF" stroke-width="2" stroke-miterlimit="10" d="
		M191.579,154.813c-8.891-13.619-6.494-27.486-3.582-41.623c8.276,3.905,12.252,11.254,10.936,19.917
		C197.793,140.593,194.757,147.454,191.579,154.813z"/>
	<path class="path" fill-rule="evenodd" clip-rule="evenodd" fill="none" stroke="#FFFFFF" stroke-width="2" stroke-miterlimit="10" d="
		M187.37,148.454c1.025,1.867,2.27,4.045,3.404,6.275c0.233,0.459,0.242,1.201,0.043,1.684c-0.956,2.312-2.02,4.579-3.447,6.805
		C187.37,158.208,187.37,153.2,187.37,148.454z"/>

</svg>
